<svg xmlns="http://www.w3.org/2000/svg" xmlns:v="https://svgstorm.com"
viewBox = "0 0 411 167"
width="411"
height="167">
<g fill="None" fill-opacity="0.0" stroke="#000000" stroke-opacity="0.00" stroke-width="0.3"><path d="
M 0.00 167.00 
L 411.00 167.00
L 411.00 0.00
L 0.00 0.00
L 0.00 167.00
M 70.00 47.00 
C 86.87 35.11 106.51 5.09 128.75 26.25 C 150.99 47.40 121.52 67.89 107.00 83.00
C 120.37 99.27 150.07 117.73 129.75 139.75 C 109.43 161.77 85.64 134.75 72.00 119.00
C 65.70 124.17 60.73 130.07 54.75 135.75 C 48.77 141.44 41.67 148.99 32.93 148.93 C 24.19 148.86 16.82 143.15 11.25 136.75 C 5.67 130.35 4.04 118.06 10.25 111.25 C 16.47 104.45 18.86 99.79 26.75 93.75 C 34.65 87.72 37.53 81.35 28.25 75.75 C 18.97 70.15 19.49 64.33 12.08 57.92 C 4.67 51.51 5.18 40.72 10.30 33.30 C 15.43 25.88 20.05 20.64 29.22 18.22 C 38.40 15.81 47.20 22.80 53.25 28.75 C 59.29 34.71 65.91 39.64 70.00 47.00
M 269.00 70.00 
C 266.46 70.00 264.74 72.60 262.00 72.00
C 257.36 59.40 241.92 65.83 242.01 78.01 C 242.10 90.18 256.98 96.38 262.00 84.00
C 278.07 88.50 255.29 102.97 244.93 96.07 C 234.56 89.18 231.09 73.72 239.75 63.75 C 248.41 53.79 266.26 57.64 269.00 70.00
M 178.00 69.00 
C 171.21 60.32 166.26 71.76 174.08 73.92 C 181.90 76.09 185.76 79.84 186.00 87.00 C 186.24 94.16 178.21 98.28 172.00 98.00 C 165.78 97.72 159.01 92.60 159.00 86.00
C 161.64 84.71 164.29 84.14 167.00 85.00
C 170.62 100.02 185.18 83.32 172.30 80.70 C 159.43 78.07 159.28 68.19 166.08 61.08 C 172.89 53.98 192.34 66.00 178.00 69.00
M 210.00 84.00 
C 211.24 78.83 216.71 73.58 216.77 67.77 C 216.83 61.96 225.19 54.41 228.92 61.08 C 232.64 67.76 226.03 77.63 229.00 84.00 C 231.97 90.37 226.57 102.74 222.08 95.92 C 217.60 89.09 226.10 80.08 221.00 74.00
C 217.38 79.09 218.56 93.56 210.97 94.97 C 203.38 96.38 202.79 79.69 200.00 75.00
C 195.40 78.25 204.45 99.72 194.99 97.99 C 185.53 96.26 194.67 81.20 191.00 73.00 C 187.33 64.80 196.74 52.90 201.97 63.03 C 207.21 73.15 205.60 74.58 210.00 84.00
M 290.00 77.00 
C 289.08 79.77 292.19 80.90 293.00 83.00
C 294.02 78.80 298.37 76.53 302.00 80.00
C 300.84 83.31 300.36 86.75 299.00 90.00
C 304.20 92.40 305.11 97.40 300.00 100.00
C 298.07 98.74 296.09 97.00 295.00 95.00
C 282.21 107.96 259.90 87.36 279.00 78.00
C 272.75 70.73 275.51 59.38 286.01 59.01 C 296.51 58.64 299.44 73.74 290.00 77.00
M 338.00 60.00 
C 340.67 62.67 339.18 75.19 339.00 79.00 C 338.82 82.81 340.78 95.34 339.00 97.00
C 337.47 98.59 333.51 98.51 332.00 97.00
C 329.79 95.84 333.62 84.85 332.00 82.00
C 327.00 82.00 322.00 82.00 317.00 82.00
C 316.72 87.65 319.61 102.16 310.00 97.00
C 307.11 94.11 309.03 85.55 309.00 81.00 C 308.97 76.45 307.89 67.64 309.00 63.00
C 311.79 50.43 321.95 68.58 317.00 75.00
C 322.00 75.00 327.00 75.00 332.00 75.00
C 332.00 69.67 332.00 64.33 332.00 59.00
C 333.88 59.47 336.93 57.94 338.00 60.00
M 179.00 121.00 
C 179.26 120.20 181.00 119.20 181.00 118.00
C 186.04 120.72 191.25 117.64 196.00 121.00
C 195.84 118.69 195.55 114.66 199.00 115.00
C 199.59 119.83 203.47 133.47 194.00 132.00
C 200.63 123.57 183.44 133.30 186.00 122.00
C 182.53 121.86 184.56 126.85 184.00 129.00
C 182.06 129.62 180.87 127.80 179.00 128.00
C 174.42 128.34 165.47 130.89 162.00 125.00
C 164.62 122.37 165.67 125.80 168.00 126.00
C 167.06 122.15 159.47 120.22 165.08 116.08 C 170.70 111.95 172.81 122.59 167.00 118.00
C 166.76 120.65 169.92 121.73 172.00 122.00
C 171.51 118.24 178.11 117.78 179.00 121.00
M 234.00 116.00 
C 235.34 115.33 234.26 115.95 236.00 116.00
C 238.25 116.06 239.51 114.24 240.00 118.00
C 240.13 118.98 239.85 120.02 240.00 121.00
C 244.45 118.50 252.10 118.14 256.00 121.00
C 257.97 119.63 255.74 114.76 260.00 116.00
C 260.19 120.11 260.69 124.18 262.00 128.00
C 255.59 128.17 245.94 131.20 241.00 126.00
C 240.15 129.72 237.30 127.82 235.00 128.00
C 229.87 128.41 222.91 129.98 219.00 126.00
C 218.16 128.60 213.87 130.26 214.00 126.00
C 210.29 130.83 208.00 121.84 207.00 129.00
C 202.06 126.97 203.05 116.28 208.00 115.00
C 209.05 117.01 209.98 118.98 211.00 121.00
C 211.90 114.48 220.32 113.45 218.00 122.00
C 222.29 116.07 230.48 123.55 234.00 116.00
M 291.00 126.00 
C 291.00 122.52 289.27 113.37 295.00 116.00
C 295.37 117.54 293.57 118.40 294.00 120.00
C 294.32 119.76 295.57 120.17 296.00 120.00
C 298.59 118.95 306.98 118.44 310.00 119.00
C 311.13 119.21 311.67 119.95 313.00 120.00
C 319.77 120.24 321.24 120.88 320.00 128.00
C 317.27 129.46 312.14 129.01 312.00 125.00
C 312.49 124.48 309.60 126.19 310.00 126.00
C 310.03 125.30 313.60 136.60 307.92 132.92 C 302.24 129.25 297.87 128.50 291.00 128.00
C 282.60 127.39 277.00 131.20 267.77 127.23 C 258.54 123.25 277.72 105.84 276.00 121.00
C 271.99 115.12 265.95 121.82 271.00 126.00
C 276.23 124.04 279.99 115.17 286.00 121.00
C 287.12 109.16 291.16 121.02 291.00 126.00
M 332.00 122.00 
C 336.35 120.83 334.12 126.02 336.00 128.00
C 329.94 129.17 324.16 130.13 325.31 122.31 C 326.45 114.48 334.09 112.98 332.00 122.00
M 350.00 116.00 
C 351.51 117.59 350.81 119.78 351.00 122.00
C 352.99 116.46 358.13 120.93 361.00 121.00
C 362.29 121.03 367.25 119.45 369.00 119.00
C 370.58 118.60 370.01 118.91 371.00 119.00
C 371.95 119.08 373.08 118.79 374.00 119.00
C 375.61 119.37 376.63 120.06 378.00 121.00
C 377.74 118.24 376.16 115.74 380.00 115.00
C 381.37 116.05 380.23 118.44 382.00 119.00
C 381.88 117.15 383.43 116.55 384.00 115.00
C 385.82 115.60 386.15 117.56 387.00 119.00
C 389.11 120.15 391.39 118.43 394.00 119.00
C 394.95 119.87 394.54 121.68 396.00 122.00
C 399.94 109.09 398.81 120.86 401.00 128.00
C 398.02 129.75 395.27 127.61 392.00 129.00
C 390.40 129.00 387.17 129.23 386.00 129.00
C 384.25 128.65 383.96 128.48 383.00 127.00
C 382.61 126.40 380.91 121.26 381.00 121.00
C 379.90 123.27 382.26 126.98 380.00 129.00
C 378.21 124.74 372.43 128.47 372.00 132.00
C 370.72 131.72 368.50 132.76 368.00 131.00
C 367.68 130.88 368.26 128.30 368.00 128.00
C 364.96 129.72 362.31 127.81 359.00 128.00
C 354.94 127.93 354.72 128.70 351.00 126.00
C 350.77 126.35 351.00 127.00 351.00 127.00
C 349.23 131.13 345.83 126.98 347.00 124.00
C 342.75 123.12 345.58 129.42 342.00 129.00
C 342.02 128.95 341.22 128.30 341.00 128.00
C 339.23 125.60 339.27 118.35 341.00 116.00
C 341.22 115.70 341.72 114.93 342.00 115.00
C 344.89 115.71 343.36 119.27 345.00 121.00
C 348.23 121.53 346.24 113.31 350.00 116.00 Z"/>
</g>
<g fill="None" fill-opacity="0.0" stroke="#0CC2CA" stroke-opacity="0.95" stroke-width="0.3"><path d="
M 70.00 47.00 
C 65.91 39.64 59.29 34.71 53.25 28.75 C 47.20 22.80 38.40 15.81 29.22 18.22 C 20.05 20.64 15.43 25.88 10.30 33.30 C 5.18 40.72 4.67 51.51 12.08 57.92 C 19.49 64.33 18.97 70.15 28.25 75.75 C 37.53 81.35 34.65 87.72 26.75 93.75 C 18.86 99.79 16.47 104.45 10.25 111.25 C 4.04 118.06 5.67 130.35 11.25 136.75 C 16.82 143.15 24.19 148.86 32.93 148.93 C 41.67 148.99 48.77 141.44 54.75 135.75 C 60.73 130.07 65.70 124.17 72.00 119.00
C 85.64 134.75 109.43 161.77 129.75 139.75 C 150.07 117.73 120.37 99.27 107.00 83.00
C 121.52 67.89 150.99 47.40 128.75 26.25 C 106.51 5.09 86.87 35.11 70.00 47.00
M 39.00 36.00 
C 39.81 36.81 38.69 39.77 37.29 38.63 C 35.90 37.50 38.10 35.10 39.00 36.00
M 46.00 36.00 
C 50.82 36.11 46.88 41.04 46.00 36.00
M 109.00 39.00 
C 109.05 44.35 103.60 39.01 109.00 39.00
M 119.00 42.00 
C 113.65 42.05 118.99 36.60 119.00 42.00
M 39.00 46.00 
C 40.03 52.35 32.56 45.08 39.00 46.00
M 48.00 46.00 
C 48.81 46.81 47.69 49.77 46.29 48.63 C 44.90 47.50 47.10 45.10 48.00 46.00
M 20.00 51.00 
C 13.72 48.73 20.21 45.58 20.00 51.00
M 30.00 59.00 
C 24.41 58.75 29.69 53.38 30.00 59.00
M 107.00 58.00 
C 111.82 58.11 107.88 63.04 107.00 58.00
M 79.00 67.00 
C 82.94 70.37 86.67 74.11 90.00 78.00
C 97.54 86.83 89.40 90.13 84.25 98.25 C 79.10 106.36 70.87 108.71 65.25 100.75 C 59.63 92.79 52.60 92.15 48.00 84.00
C 55.58 75.67 67.25 52.10 79.00 67.00
M 39.00 68.00 
C 33.41 67.75 38.69 62.38 39.00 68.00
M 45.00 92.00 
C 46.05 97.89 39.11 92.01 45.00 92.00
M 92.00 103.00 
C 87.76 101.38 92.89 98.18 92.00 103.00
M 36.00 102.00 
C 37.05 107.89 30.11 102.01 36.00 102.00
M 101.00 108.00 
C 104.46 113.29 95.65 110.81 101.00 108.00
M 92.00 109.00 
C 92.81 109.81 91.69 112.77 90.29 111.63 C 88.90 110.50 91.10 108.10 92.00 109.00
M 83.00 113.00 
C 77.65 113.89 82.15 107.45 83.00 113.00
M 27.00 111.00 
C 27.92 117.98 20.67 111.56 27.00 111.00
M 36.00 115.00 
C 31.27 111.47 39.61 109.72 36.00 115.00
M 44.00 112.00 
C 49.35 111.95 44.01 117.40 44.00 112.00
M 56.00 112.00 
C 56.81 112.81 55.69 115.77 54.29 114.63 C 52.90 113.50 55.10 111.10 56.00 112.00
M 103.00 121.00 
C 96.92 121.77 102.69 114.86 103.00 121.00
M 112.00 122.00 
C 107.37 121.11 111.37 114.81 112.00 122.00
M 118.00 118.00 
C 123.35 117.95 118.01 123.40 118.00 118.00
M 91.00 119.00 
C 94.14 122.80 87.61 121.75 91.00 119.00
M 28.00 121.00 
C 27.41 125.27 21.98 121.51 28.00 121.00
M 37.00 121.00 
C 37.16 126.05 32.57 121.33 37.00 121.00
M 47.00 122.00 
C 45.85 129.42 40.39 118.46 47.00 122.00
M 56.00 121.00 
C 57.45 127.19 51.23 123.37 56.00 121.00
M 111.00 128.00 
C 114.14 131.80 107.61 130.75 111.00 128.00 Z"/>
</g>
<g fill="None" fill-opacity="0.0" stroke="#18D3DE" stroke-opacity="0.28" stroke-width="0.3"><path d="
M 39.00 36.00 
C 38.10 35.10 35.90 37.50 37.29 38.63 C 38.69 39.77 39.81 36.81 39.00 36.00 Z"/>
</g>
<g fill="None" fill-opacity="0.0" stroke="#1FD7E4" stroke-opacity="0.36" stroke-width="0.3"><path d="
M 46.00 36.00 
C 46.88 41.04 50.82 36.11 46.00 36.00 Z"/>
</g>
<g fill="None" fill-opacity="0.0" stroke="#0FD1D9" stroke-opacity="0.42" stroke-width="0.3"><path d="
M 109.00 39.00 
C 103.60 39.01 109.05 44.35 109.00 39.00 Z"/>
</g>
<g fill="None" fill-opacity="0.0" stroke="#0ECEDA" stroke-opacity="0.42" stroke-width="0.3"><path d="
M 119.00 42.00 
C 118.99 36.60 113.65 42.05 119.00 42.00 Z"/>
</g>
<g fill="None" fill-opacity="0.0" stroke="#15CEDA" stroke-opacity="0.49" stroke-width="0.3"><path d="
M 39.00 46.00 
C 32.56 45.08 40.03 52.35 39.00 46.00 Z"/>
</g>
<g fill="None" fill-opacity="0.0" stroke="#11CBD5" stroke-opacity="0.24" stroke-width="0.3"><path d="
M 48.00 46.00 
C 47.10 45.10 44.90 47.50 46.29 48.63 C 47.69 49.77 48.81 46.81 48.00 46.00 Z"/>
</g>
<g fill="None" fill-opacity="0.0" stroke="#2ACEDA" stroke-opacity="0.27" stroke-width="0.3"><path d="
M 20.00 51.00 
C 20.21 45.58 13.72 48.73 20.00 51.00 Z"/>
</g>
<g fill="None" fill-opacity="0.0" stroke="#1AD4E0" stroke-opacity="0.31" stroke-width="0.3"><path d="
M 30.00 59.00 
C 29.69 53.38 24.41 58.75 30.00 59.00 Z"/>
</g>
<g fill="None" fill-opacity="0.0" stroke="#08959D" stroke-opacity="0.25" stroke-width="0.3"><path d="
M 107.00 58.00 
C 107.88 63.04 111.82 58.11 107.00 58.00 Z"/>
</g>
<g fill="None" fill-opacity="0.0" stroke="#EE5E5F" stroke-opacity="0.78" stroke-width="0.3"><path d="
M 269.00 70.00 
C 266.26 57.64 248.41 53.79 239.75 63.75 C 231.09 73.72 234.56 89.18 244.93 96.07 C 255.29 102.97 278.07 88.50 262.00 84.00
C 256.98 96.38 242.10 90.18 242.01 78.01 C 241.92 65.83 257.36 59.40 262.00 72.00
C 264.74 72.60 266.46 70.00 269.00 70.00 Z"/>
</g>
<g fill="None" fill-opacity="0.0" stroke="#EE5E60" stroke-opacity="0.76" stroke-width="0.3"><path d="
M 178.00 69.00 
C 192.34 66.00 172.89 53.98 166.08 61.08 C 159.28 68.19 159.43 78.07 172.30 80.70 C 185.18 83.32 170.62 100.02 167.00 85.00
C 164.29 84.14 161.64 84.71 159.00 86.00
C 159.01 92.60 165.78 97.72 172.00 98.00 C 178.21 98.28 186.24 94.16 186.00 87.00 C 185.76 79.84 181.90 76.09 174.08 73.92 C 166.26 71.76 171.21 60.32 178.00 69.00 Z"/>
</g>
<g fill="None" fill-opacity="0.0" stroke="#EF5F5F" stroke-opacity="0.76" stroke-width="0.3"><path d="
M 210.00 84.00 
C 205.60 74.58 207.21 73.15 201.97 63.03 C 196.74 52.90 187.33 64.80 191.00 73.00 C 194.67 81.20 185.53 96.26 194.99 97.99 C 204.45 99.72 195.40 78.25 200.00 75.00
C 202.79 79.69 203.38 96.38 210.97 94.97 C 218.56 93.56 217.38 79.09 221.00 74.00
C 226.10 80.08 217.60 89.09 222.08 95.92 C 226.57 102.74 231.97 90.37 229.00 84.00 C 226.03 77.63 232.64 67.76 228.92 61.08 C 225.19 54.41 216.83 61.96 216.77 67.77 C 216.71 73.58 211.24 78.83 210.00 84.00 Z"/>
</g>
<g fill="None" fill-opacity="0.0" stroke="#F05D5F" stroke-opacity="0.77" stroke-width="0.3"><path d="
M 290.00 77.00 
C 299.44 73.74 296.51 58.64 286.01 59.01 C 275.51 59.38 272.75 70.73 279.00 78.00
C 259.90 87.36 282.21 107.96 295.00 95.00
C 296.09 97.00 298.07 98.74 300.00 100.00
C 305.11 97.40 304.20 92.40 299.00 90.00
C 300.36 86.75 300.84 83.31 302.00 80.00
C 298.37 76.53 294.02 78.80 293.00 83.00
C 292.19 80.90 289.08 79.77 290.00 77.00
M 287.00 73.00 
C 284.41 75.71 284.66 74.22 284.00 73.00
C 282.43 70.13 280.76 66.60 285.08 65.08 C 289.40 63.57 290.54 71.66 287.00 73.00
M 285.00 82.00 
C 288.81 86.67 291.98 92.21 283.00 92.00 C 274.01 91.78 280.13 82.83 285.00 82.00 Z"/>
</g>
<g fill="None" fill-opacity="0.0" stroke="#F25C5C" stroke-opacity="0.82" stroke-width="0.3"><path d="
M 309.00 63.00 
C 309.15 62.39 310.27 60.42 311.00 60.00
C 310.33 72.17 312.33 85.66 310.00 97.00
C 319.61 102.16 316.72 87.65 317.00 82.00
C 322.00 82.00 327.00 82.00 332.00 82.00
C 333.62 84.85 329.79 95.84 332.00 97.00
C 333.22 97.64 336.59 97.00 338.00 97.00
C 337.52 91.67 339.31 84.04 338.00 79.00 C 336.69 73.96 340.82 64.09 338.00 60.00
C 336.93 57.94 333.88 59.47 332.00 59.00
C 332.00 64.33 332.00 69.67 332.00 75.00
C 327.00 75.00 322.00 75.00 317.00 75.00
C 321.95 68.58 311.79 50.43 309.00 63.00 Z"/>
</g>
<g fill="None" fill-opacity="0.0" stroke="#DF6763" stroke-opacity="0.45" stroke-width="0.3"><path d="
M 309.00 63.00 
C 307.89 67.64 308.97 76.45 309.00 81.00 C 309.03 85.55 307.11 94.11 310.00 97.00
C 312.33 85.66 310.33 72.17 311.00 60.00
C 310.27 60.42 309.15 62.39 309.00 63.00 Z"/>
</g>
<g fill="None" fill-opacity="0.0" stroke="#D2706D" stroke-opacity="0.55" stroke-width="0.3"><path d="
M 338.00 97.00 
C 338.50 97.00 339.00 97.00 339.00 97.00
C 340.78 95.34 338.82 82.81 339.00 79.00 C 339.18 75.19 340.67 62.67 338.00 60.00
C 340.82 64.09 336.69 73.96 338.00 79.00 C 339.31 84.04 337.52 91.67 338.00 97.00 Z"/>
</g>
<g fill="None" fill-opacity="0.0" stroke="#000000" stroke-opacity="0.00" stroke-width="0.3"><path d="
M 90.00 78.00 
C 86.41 74.41 82.54 70.54 79.00 67.00
C 67.25 52.10 55.58 75.67 48.00 84.00
C 52.60 92.15 59.63 92.79 65.25 100.75 C 70.87 108.71 79.10 106.36 84.25 98.25 C 89.40 90.13 97.54 86.83 90.00 78.00
M 72.00 77.00 
C 90.01 68.68 79.38 97.13 68.00 98.00
C 63.85 91.26 62.33 88.16 61.00 80.00 C 59.67 71.84 68.96 67.24 72.00 77.00 Z"/>
</g>
<g fill="None" fill-opacity="0.0" stroke="#1BD6E0" stroke-opacity="0.32" stroke-width="0.3"><path d="
M 39.00 68.00 
C 38.69 62.38 33.41 67.75 39.00 68.00 Z"/>
</g>
<g fill="None" fill-opacity="0.0" stroke="#000000" stroke-opacity="0.00" stroke-width="0.3"><path d="
M 284.00 73.00 
C 284.32 73.18 286.65 73.13 287.00 73.00
C 290.54 71.66 289.40 63.57 285.08 65.08 C 280.76 66.60 282.43 70.13 284.00 73.00 Z"/>
</g>
<g fill="None" fill-opacity="0.0" stroke="#00FFFF" stroke-opacity="0.00" stroke-width="0.3"><path d="
M 90.00 78.00 
C 86.67 74.11 82.94 70.37 79.00 67.00
C 82.54 70.54 86.41 74.41 90.00 78.00 Z"/>
</g>
<g fill="None" fill-opacity="0.0" stroke="#F1605F" stroke-opacity="0.89" stroke-width="0.3"><path d="
M 72.00 77.00 
C 68.96 67.24 59.67 71.84 61.00 80.00 C 62.33 88.16 63.85 91.26 68.00 98.00
C 79.38 97.13 90.01 68.68 72.00 77.00 Z"/>
</g>
<g fill="None" fill-opacity="0.0" stroke="#E25E61" stroke-opacity="0.47" stroke-width="0.3"><path d="
M 287.00 73.00 
C 286.65 73.13 284.32 73.18 284.00 73.00
C 284.66 74.22 284.41 75.71 287.00 73.00 Z"/>
</g>
<g fill="None" fill-opacity="0.0" stroke="#000000" stroke-opacity="0.00" stroke-width="0.3"><path d="
M 285.00 82.00 
C 280.13 82.83 274.01 91.78 283.00 92.00 C 291.98 92.21 288.81 86.67 285.00 82.00 Z"/>
</g>
<g fill="None" fill-opacity="0.0" stroke="#11D2DC" stroke-opacity="0.18" stroke-width="0.3"><path d="
M 45.00 92.00 
C 39.11 92.01 46.05 97.89 45.00 92.00 Z"/>
</g>
<g fill="None" fill-opacity="0.0" stroke="#D07171" stroke-opacity="0.03" stroke-width="0.3"><path d="
M 339.00 97.00 
C 339.00 97.00 338.50 97.00 338.00 97.00
C 336.59 97.00 333.22 97.64 332.00 97.00
C 333.51 98.51 337.47 98.59 339.00 97.00 Z"/>
</g>
<g fill="None" fill-opacity="0.0" stroke="#18D6DC" stroke-opacity="0.38" stroke-width="0.3"><path d="
M 92.00 103.00 
C 92.89 98.18 87.76 101.38 92.00 103.00 Z"/>
</g>
<g fill="None" fill-opacity="0.0" stroke="#0EA9AE" stroke-opacity="0.26" stroke-width="0.3"><path d="
M 36.00 102.00 
C 30.11 102.01 37.05 107.89 36.00 102.00 Z"/>
</g>
<g fill="None" fill-opacity="0.0" stroke="#17ACB2" stroke-opacity="0.26" stroke-width="0.3"><path d="
M 101.00 108.00 
C 95.65 110.81 104.46 113.29 101.00 108.00 Z"/>
</g>
<g fill="None" fill-opacity="0.0" stroke="#1DD7E3" stroke-opacity="0.20" stroke-width="0.3"><path d="
M 92.00 109.00 
C 91.10 108.10 88.90 110.50 90.29 111.63 C 91.69 112.77 92.81 109.81 92.00 109.00 Z"/>
</g>
<g fill="None" fill-opacity="0.0" stroke="#18D7DF" stroke-opacity="0.23" stroke-width="0.3"><path d="
M 83.00 113.00 
C 82.15 107.45 77.65 113.89 83.00 113.00 Z"/>
</g>
<g fill="None" fill-opacity="0.0" stroke="#14B0BB" stroke-opacity="0.31" stroke-width="0.3"><path d="
M 27.00 111.00 
C 20.67 111.56 27.92 117.98 27.00 111.00 Z"/>
</g>
<g fill="None" fill-opacity="0.0" stroke="#1CD8E4" stroke-opacity="0.40" stroke-width="0.3"><path d="
M 36.00 115.00 
C 39.61 109.72 31.27 111.47 36.00 115.00 Z"/>
</g>
<g fill="None" fill-opacity="0.0" stroke="#1BD4E1" stroke-opacity="0.30" stroke-width="0.3"><path d="
M 44.00 112.00 
C 44.01 117.40 49.35 111.95 44.00 112.00 Z"/>
</g>
<g fill="None" fill-opacity="0.0" stroke="#19D4DD" stroke-opacity="0.15" stroke-width="0.3"><path d="
M 56.00 112.00 
C 55.10 111.10 52.90 113.50 54.29 114.63 C 55.69 115.77 56.81 112.81 56.00 112.00 Z"/>
</g>
<g fill="None" fill-opacity="0.0" stroke="#33BAC0" stroke-opacity="0.63" stroke-width="0.3"><path d="
M 179.00 128.00 
C 179.84 126.02 178.33 123.06 179.00 121.00
C 178.11 117.78 171.51 118.24 172.00 122.00
C 169.92 121.73 166.76 120.65 167.00 118.00
C 172.81 122.59 170.70 111.95 165.08 116.08 C 159.47 120.22 167.06 122.15 168.00 126.00
C 165.67 125.80 164.62 122.37 162.00 125.00
C 165.47 130.89 174.42 128.34 179.00 128.00
M 178.00 122.00 
C 175.18 125.21 174.26 119.11 178.00 122.00
M 177.00 124.00 
C 176.82 128.35 171.88 123.90 177.00 124.00 Z"/>
</g>
<g fill="None" fill-opacity="0.0" stroke="#2EBBC2" stroke-opacity="0.53" stroke-width="0.3"><path d="
M 179.00 121.00 
C 178.33 123.06 179.84 126.02 179.00 128.00
C 180.87 127.80 182.06 129.62 184.00 129.00
C 184.56 126.85 182.53 121.86 186.00 122.00
C 183.44 133.30 200.63 123.57 194.00 132.00
C 203.47 133.47 199.59 119.83 199.00 115.00
C 195.55 114.66 195.84 118.69 196.00 121.00
C 191.25 117.64 186.04 120.72 181.00 118.00
C 181.00 119.20 179.26 120.20 179.00 121.00
M 192.00 123.00 
C 192.16 128.05 187.57 123.33 192.00 123.00 Z"/>
</g>
<g fill="None" fill-opacity="0.0" stroke="#27BAC1" stroke-opacity="0.65" stroke-width="0.3"><path d="
M 235.00 128.00 
C 234.65 127.49 234.05 115.86 234.00 116.00
C 230.48 123.55 222.29 116.07 218.00 122.00
C 220.32 113.45 211.90 114.48 211.00 121.00
C 209.98 118.98 209.05 117.01 208.00 115.00
C 203.05 116.28 202.06 126.97 207.00 129.00
C 208.00 121.84 210.29 130.83 214.00 126.00
C 213.87 130.26 218.16 128.60 219.00 126.00
C 222.91 129.98 229.87 128.41 235.00 128.00
M 224.00 121.00 
C 223.82 125.35 218.88 120.90 224.00 121.00
M 232.00 124.00 
C 232.51 127.45 229.12 124.37 230.00 123.00
C 229.45 121.63 235.86 119.87 232.00 124.00
M 227.00 124.00 
C 223.78 128.76 220.36 123.42 227.00 124.00 Z"/>
</g>
<g fill="None" fill-opacity="0.0" stroke="#19BEC5" stroke-opacity="0.22" stroke-width="0.3"><path d="
M 234.00 116.00 
C 234.05 115.86 234.65 127.49 235.00 128.00
C 237.30 127.82 240.15 129.72 241.00 126.00
C 240.60 125.07 240.16 122.09 240.00 121.00
C 239.85 120.02 240.13 118.98 240.00 118.00
C 239.21 117.02 237.41 118.52 237.00 119.00
C 237.41 118.81 238.00 119.00 238.00 119.00
C 239.77 120.71 239.54 126.30 238.00 128.00
C 237.05 125.96 236.25 122.55 236.00 120.00
C 235.90 118.95 236.45 116.94 236.00 116.00
C 234.26 115.95 235.34 115.33 234.00 116.00 Z"/>
</g>
<g fill="None" fill-opacity="0.0" stroke="#388283" stroke-opacity="0.35" stroke-width="0.3"><path d="
M 236.00 116.00 
C 236.45 116.94 235.90 118.95 236.00 120.00
C 236.00 119.84 236.74 119.12 237.00 119.00
C 237.41 118.52 239.21 117.02 240.00 118.00
C 239.51 114.24 238.25 116.06 236.00 116.00 Z"/>
</g>
<g fill="None" fill-opacity="0.0" stroke="#32B9C1" stroke-opacity="0.58" stroke-width="0.3"><path d="
M 291.00 128.00 
C 290.76 127.69 291.00 126.50 291.00 126.00
C 291.16 121.02 287.12 109.16 286.00 121.00
C 279.99 115.17 276.23 124.04 271.00 126.00
C 265.95 121.82 271.99 115.12 276.00 121.00
C 277.72 105.84 258.54 123.25 267.77 127.23 C 277.00 131.20 282.60 127.39 291.00 128.00
M 282.00 122.00 
C 285.46 127.29 276.65 124.81 282.00 122.00 Z"/>
</g>
<g fill="None" fill-opacity="0.0" stroke="#2CBBC3" stroke-opacity="0.67" stroke-width="0.3"><path d="
M 291.00 126.00 
C 291.00 126.50 290.76 127.69 291.00 128.00
C 297.87 128.50 302.24 129.25 307.92 132.92 C 313.60 136.60 310.03 125.30 310.00 126.00
C 308.56 126.70 306.88 126.78 306.00 125.00
C 309.33 125.80 312.53 121.70 310.00 119.00
C 306.98 118.44 298.59 118.95 296.00 120.00
C 296.23 120.34 296.00 121.00 296.00 121.00
C 297.17 121.42 299.35 120.73 301.00 122.00
C 298.06 123.33 295.89 124.02 301.00 124.00
C 300.10 127.16 296.88 127.10 296.00 124.00
C 294.82 125.92 293.96 127.99 294.00 124.00
C 293.90 122.72 293.90 121.28 294.00 120.00
C 293.57 118.40 295.37 117.54 295.00 116.00
C 289.27 113.37 291.00 122.52 291.00 126.00
M 306.00 124.00 
C 304.95 118.11 311.89 123.99 306.00 124.00
M 309.00 128.00 
C 309.01 133.80 303.07 127.09 309.00 128.00 Z"/>
</g>
<g fill="None" fill-opacity="0.0" stroke="#30BBC1" stroke-opacity="0.65" stroke-width="0.3"><path d="
M 332.00 122.00 
C 334.09 112.98 326.45 114.48 325.31 122.31 C 324.16 130.13 329.94 129.17 336.00 128.00
C 334.12 126.02 336.35 120.83 332.00 122.00
M 331.00 126.00 
C 324.49 127.51 328.89 120.17 331.00 126.00 Z"/>
</g>
<g fill="None" fill-opacity="0.0" stroke="#1AC8CB" stroke-opacity="0.78" stroke-width="0.3"><path d="
M 341.00 116.00 
C 340.50 119.49 340.50 124.51 341.00 128.00
C 341.22 128.30 342.02 128.95 342.00 129.00
C 342.87 126.29 342.87 117.71 342.00 115.00
C 341.72 114.93 341.22 115.70 341.00 116.00 Z"/>
</g>
<g fill="None" fill-opacity="0.0" stroke="#2FBAC3" stroke-opacity="0.62" stroke-width="0.3"><path d="
M 342.00 129.00 
C 345.58 129.42 342.75 123.12 347.00 124.00
C 345.83 126.98 349.23 131.13 351.00 127.00
C 348.22 124.33 351.71 119.06 350.00 116.00
C 346.24 113.31 348.23 121.53 345.00 121.00
C 343.36 119.27 344.89 115.71 342.00 115.00
C 342.87 117.71 342.87 126.29 342.00 129.00 Z"/>
</g>
<g fill="None" fill-opacity="0.0" stroke="#35BEC5" stroke-opacity="0.62" stroke-width="0.3"><path d="
M 374.00 119.00 
C 373.95 119.01 373.99 120.50 374.00 121.00
C 374.01 122.33 373.99 123.67 374.00 125.00
C 371.56 125.57 372.17 123.16 373.00 122.00
C 370.47 122.64 372.24 120.15 371.00 119.00
C 370.01 118.91 370.58 118.60 369.00 119.00
C 367.15 122.11 371.18 128.52 368.00 131.00
C 368.50 132.76 370.72 131.72 372.00 132.00
C 372.43 128.47 378.21 124.74 380.00 129.00
C 382.26 126.98 379.90 123.27 381.00 121.00
C 381.32 120.34 382.53 120.20 383.00 121.00
C 382.86 120.43 382.27 119.52 382.00 119.00
C 380.23 118.44 381.37 116.05 380.00 115.00
C 376.16 115.74 377.74 118.24 378.00 121.00
C 376.63 120.06 375.61 119.37 374.00 119.00 Z"/>
</g>
<g fill="None" fill-opacity="0.0" stroke="#30BBC5" stroke-opacity="0.74" stroke-width="0.3"><path d="
M 382.00 119.00 
C 382.27 119.52 382.86 120.43 383.00 121.00
C 383.46 122.82 382.34 125.25 383.00 127.00
C 383.96 128.48 384.25 128.65 386.00 129.00
C 383.88 129.32 387.03 119.68 387.00 119.00
C 386.15 117.56 385.82 115.60 384.00 115.00
C 383.43 116.55 381.88 117.15 382.00 119.00 Z"/>
</g>
<g fill="None" fill-opacity="0.0" stroke="#36BCC2" stroke-opacity="0.50" stroke-width="0.3"><path d="
M 396.00 122.00 
C 395.99 122.02 393.29 128.31 392.00 129.00
C 395.27 127.61 398.02 129.75 401.00 128.00
C 398.81 120.86 399.94 109.09 396.00 122.00 Z"/>
</g>
<g fill="None" fill-opacity="0.0" stroke="#33B8BF" stroke-opacity="0.59" stroke-width="0.3"><path d="
M 240.00 121.00 
C 240.16 122.09 240.60 125.07 241.00 126.00
C 245.94 131.20 255.59 128.17 262.00 128.00
C 260.69 124.18 260.19 120.11 260.00 116.00
C 255.74 114.76 257.97 119.63 256.00 121.00
C 252.10 118.14 244.45 118.50 240.00 121.00
M 254.00 121.00 
C 252.94 125.53 247.83 121.01 254.00 121.00
M 249.00 122.00 
C 249.41 125.16 245.78 124.77 244.00 126.00
C 242.85 122.19 247.13 123.54 249.00 122.00 Z"/>
</g>
<g fill="None" fill-opacity="0.0" stroke="#33ACB0" stroke-opacity="0.11" stroke-width="0.3"><path d="
M 341.00 128.00 
C 340.50 124.51 340.50 119.49 341.00 116.00
C 339.27 118.35 339.23 125.60 341.00 128.00 Z"/>
</g>
<g fill="None" fill-opacity="0.0" stroke="#3ABAC6" stroke-opacity="0.31" stroke-width="0.3"><path d="
M 351.00 127.00 
C 351.00 127.00 350.77 126.35 351.00 126.00
C 352.34 123.98 351.17 123.93 351.00 122.00
C 350.81 119.78 351.51 117.59 350.00 116.00
C 351.71 119.06 348.22 124.33 351.00 127.00 Z"/>
</g>
<g fill="None" fill-opacity="0.0" stroke="#19D7DF" stroke-opacity="0.33" stroke-width="0.3"><path d="
M 103.00 121.00 
C 102.69 114.86 96.92 121.77 103.00 121.00 Z"/>
</g>
<g fill="None" fill-opacity="0.0" stroke="#0FCBD4" stroke-opacity="0.54" stroke-width="0.3"><path d="
M 112.00 122.00 
C 111.37 114.81 107.37 121.11 112.00 122.00 Z"/>
</g>
<g fill="None" fill-opacity="0.0" stroke="#1CDAE1" stroke-opacity="0.24" stroke-width="0.3"><path d="
M 118.00 118.00 
C 118.01 123.40 123.35 117.95 118.00 118.00 Z"/>
</g>
<g fill="None" fill-opacity="0.0" stroke="#17D5E2" stroke-opacity="0.18" stroke-width="0.3"><path d="
M 91.00 119.00 
C 87.61 121.75 94.14 122.80 91.00 119.00 Z"/>
</g>
<g fill="None" fill-opacity="0.0" stroke="#21BACB" stroke-opacity="0.67" stroke-width="0.3"><path d="
M 236.00 120.00 
C 236.25 122.55 237.05 125.96 238.00 128.00
C 237.80 125.02 238.27 121.98 238.00 119.00
C 238.00 119.00 237.41 118.81 237.00 119.00
C 236.74 119.12 236.00 119.84 236.00 120.00 Z"/>
</g>
<g fill="None" fill-opacity="0.0" stroke="#18BEC8" stroke-opacity="0.99" stroke-width="0.3"><path d="
M 238.00 128.00 
C 239.54 126.30 239.77 120.71 238.00 119.00
C 238.27 121.98 237.80 125.02 238.00 128.00 Z"/>
</g>
<g fill="None" fill-opacity="0.0" stroke="#2CBFC6" stroke-opacity="0.23" stroke-width="0.3"><path d="
M 310.00 126.00 
C 309.60 126.19 312.49 124.48 312.00 125.00
C 312.02 124.98 313.10 120.15 313.00 120.00
C 311.67 119.95 311.13 119.21 310.00 119.00
C 312.53 121.70 309.33 125.80 306.00 125.00
C 306.88 126.78 308.56 126.70 310.00 126.00 Z"/>
</g>
<g fill="None" fill-opacity="0.0" stroke="#2CBABE" stroke-opacity="0.67" stroke-width="0.3"><path d="
M 313.00 120.00 
C 313.10 120.15 312.02 124.98 312.00 125.00
C 312.14 129.01 317.27 129.46 320.00 128.00
C 321.24 120.88 319.77 120.24 313.00 120.00
M 318.00 122.00 
C 314.28 125.57 313.58 119.15 318.00 122.00
M 319.00 125.00 
C 314.52 128.01 315.33 121.29 319.00 125.00 Z"/>
</g>
<g fill="None" fill-opacity="0.0" stroke="#32BABF" stroke-opacity="0.68" stroke-width="0.3"><path d="
M 351.00 122.00 
C 351.17 123.93 352.34 123.98 351.00 126.00
C 354.72 128.70 354.94 127.93 359.00 128.00
C 360.26 126.82 360.74 121.27 361.00 121.00
C 358.13 120.93 352.99 116.46 351.00 122.00
M 358.00 123.00 
C 358.22 125.19 354.76 126.64 355.00 125.00
C 351.84 122.04 357.66 119.55 358.00 123.00 Z"/>
</g>
<g fill="None" fill-opacity="0.0" stroke="#2CB6BE" stroke-opacity="0.46" stroke-width="0.3"><path d="
M 361.00 121.00 
C 360.74 121.27 360.26 126.82 359.00 128.00
C 362.31 127.81 364.96 129.72 368.00 128.00
C 368.26 128.30 367.68 130.88 368.00 131.00
C 371.18 128.52 367.15 122.11 369.00 119.00
C 367.25 119.45 362.29 121.03 361.00 121.00 Z"/>
</g>
<g fill="None" fill-opacity="0.0" stroke="#49B2CA" stroke-opacity="0.36" stroke-width="0.3"><path d="
M 373.00 122.00 
C 373.15 121.66 373.89 121.26 374.00 121.00
C 373.99 120.50 373.95 119.01 374.00 119.00
C 373.08 118.79 371.95 119.08 371.00 119.00
C 372.24 120.15 370.47 122.64 373.00 122.00 Z"/>
</g>
<g fill="None" fill-opacity="0.0" stroke="#2EBBC2" stroke-opacity="0.60" stroke-width="0.3"><path d="
M 386.00 129.00 
C 387.17 129.23 390.40 129.00 392.00 129.00
C 393.29 128.31 395.99 122.02 396.00 122.00
C 394.54 121.68 394.95 119.87 394.00 119.00
C 391.39 118.43 389.11 120.15 387.00 119.00
C 387.03 119.68 383.88 129.32 386.00 129.00
M 393.00 122.00 
C 389.28 125.57 388.58 119.15 393.00 122.00
M 388.00 122.00 
C 387.34 127.97 383.86 123.27 388.00 122.00
M 393.00 124.00 
C 392.73 130.08 386.89 123.37 393.00 124.00 Z"/>
</g>
<g fill="None" fill-opacity="0.0" stroke="#04819A" stroke-opacity="0.02" stroke-width="0.3"><path d="
M 294.00 124.00 
C 294.17 123.16 295.89 121.92 296.00 121.00
C 296.00 121.00 296.23 120.34 296.00 120.00
C 295.57 120.17 294.32 119.76 294.00 120.00
C 293.90 121.28 293.90 122.72 294.00 124.00 Z"/>
</g>
<g fill="None" fill-opacity="0.0" stroke="#2EBECA" stroke-opacity="0.17" stroke-width="0.3"><path d="
M 381.00 121.00 
C 380.91 121.26 382.61 126.40 383.00 127.00
C 382.34 125.25 383.46 122.82 383.00 121.00
C 382.53 120.20 381.32 120.34 381.00 121.00 Z"/>
</g>
<g fill="None" fill-opacity="0.0" stroke="#25C9DA" stroke-opacity="0.38" stroke-width="0.3"><path d="
M 28.00 121.00 
C 21.98 121.51 27.41 125.27 28.00 121.00 Z"/>
</g>
<g fill="None" fill-opacity="0.0" stroke="#13D4DF" stroke-opacity="0.24" stroke-width="0.3"><path d="
M 37.00 121.00 
C 32.57 121.33 37.16 126.05 37.00 121.00 Z"/>
</g>
<g fill="None" fill-opacity="0.0" stroke="#16CFDC" stroke-opacity="0.49" stroke-width="0.3"><path d="
M 47.00 122.00 
C 40.39 118.46 45.85 129.42 47.00 122.00 Z"/>
</g>
<g fill="None" fill-opacity="0.0" stroke="#11CFDB" stroke-opacity="0.24" stroke-width="0.3"><path d="
M 56.00 121.00 
C 51.23 123.37 57.45 127.19 56.00 121.00 Z"/>
</g>
<g fill="None" fill-opacity="0.0" stroke="#18D8D9" stroke-opacity="0.30" stroke-width="0.3"><path d="
M 178.00 122.00 
C 174.26 119.11 175.18 125.21 178.00 122.00 Z"/>
</g>
<g fill="None" fill-opacity="0.0" stroke="#25D9EA" stroke-opacity="0.20" stroke-width="0.3"><path d="
M 224.00 121.00 
C 218.88 120.90 223.82 125.35 224.00 121.00 Z"/>
</g>
<g fill="None" fill-opacity="0.0" stroke="#23CDC9" stroke-opacity="0.37" stroke-width="0.3"><path d="
M 230.00 123.00 
C 231.15 121.20 231.83 122.87 232.00 124.00
C 235.86 119.87 229.45 121.63 230.00 123.00 Z"/>
</g>
<g fill="None" fill-opacity="0.0" stroke="#26D6E5" stroke-opacity="0.18" stroke-width="0.3"><path d="
M 254.00 121.00 
C 247.83 121.01 252.94 125.53 254.00 121.00 Z"/>
</g>
<g fill="None" fill-opacity="0.0" stroke="#1FCDDB" stroke-opacity="0.33" stroke-width="0.3"><path d="
M 294.00 124.00 
C 293.96 127.99 294.82 125.92 296.00 124.00
C 296.88 127.10 300.10 127.16 301.00 124.00
C 295.89 124.02 298.06 123.33 301.00 122.00
C 299.35 120.73 297.17 121.42 296.00 121.00
C 295.89 121.92 294.17 123.16 294.00 124.00 Z"/>
</g>
<g fill="None" fill-opacity="0.0" stroke="#25DCEA" stroke-opacity="0.29" stroke-width="0.3"><path d="
M 306.00 124.00 
C 311.89 123.99 304.95 118.11 306.00 124.00 Z"/>
</g>
<g fill="None" fill-opacity="0.0" stroke="#25DFE8" stroke-opacity="0.27" stroke-width="0.3"><path d="
M 318.00 122.00 
C 313.58 119.15 314.28 125.57 318.00 122.00 Z"/>
</g>
<g fill="None" fill-opacity="0.0" stroke="#4ACDD2" stroke-opacity="0.20" stroke-width="0.3"><path d="
M 355.00 125.00 
C 355.27 123.10 355.95 122.83 358.00 123.00
C 357.66 119.55 351.84 122.04 355.00 125.00 Z"/>
</g>
<g fill="None" fill-opacity="0.0" stroke="#000000" stroke-opacity="0.00" stroke-width="0.3"><path d="
M 373.00 122.00 
C 372.17 123.16 371.56 125.57 374.00 125.00
C 373.99 123.67 374.01 122.33 374.00 121.00
C 373.89 121.26 373.15 121.66 373.00 122.00 Z"/>
</g>
<g fill="None" fill-opacity="0.0" stroke="#2BE3E8" stroke-opacity="0.19" stroke-width="0.3"><path d="
M 393.00 122.00 
C 388.58 119.15 389.28 125.57 393.00 122.00 Z"/>
</g>
<g fill="None" fill-opacity="0.0" stroke="#000000" stroke-opacity="0.00" stroke-width="0.3"><path d="
M 230.00 123.00 
C 229.12 124.37 232.51 127.45 232.00 124.00
C 231.83 122.87 231.15 121.20 230.00 123.00 Z"/>
</g>
<g fill="None" fill-opacity="0.0" stroke="#000000" stroke-opacity="0.00" stroke-width="0.3"><path d="
M 249.00 122.00 
C 247.13 123.54 242.85 122.19 244.00 126.00
C 245.78 124.77 249.41 125.16 249.00 122.00 Z"/>
</g>
<g fill="None" fill-opacity="0.0" stroke="#000000" stroke-opacity="0.00" stroke-width="0.3"><path d="
M 282.00 122.00 
C 276.65 124.81 285.46 127.29 282.00 122.00 Z"/>
</g>
<g fill="None" fill-opacity="0.0" stroke="#000505" stroke-opacity="0.00" stroke-width="0.3"><path d="
M 388.00 122.00 
C 383.86 123.27 387.34 127.97 388.00 122.00 Z"/>
</g>
<g fill="None" fill-opacity="0.0" stroke="#000000" stroke-opacity="0.00" stroke-width="0.3"><path d="
M 192.00 123.00 
C 187.57 123.33 192.16 128.05 192.00 123.00 Z"/>
</g>
<g fill="None" fill-opacity="0.0" stroke="#30B0BB" stroke-opacity="0.16" stroke-width="0.3"><path d="
M 331.00 126.00 
C 328.89 120.17 324.49 127.51 331.00 126.00 Z"/>
</g>
<g fill="None" fill-opacity="0.0" stroke="#000000" stroke-opacity="0.00" stroke-width="0.3"><path d="
M 355.00 125.00 
C 354.76 126.64 358.22 125.19 358.00 123.00
C 355.95 122.83 355.27 123.10 355.00 125.00 Z"/>
</g>
<g fill="None" fill-opacity="0.0" stroke="#13C7CF" stroke-opacity="0.13" stroke-width="0.3"><path d="
M 177.00 124.00 
C 171.88 123.90 176.82 128.35 177.00 124.00 Z"/>
</g>
<g fill="None" fill-opacity="0.0" stroke="#0D737F" stroke-opacity="0.05" stroke-width="0.3"><path d="
M 227.00 124.00 
C 220.36 123.42 223.78 128.76 227.00 124.00 Z"/>
</g>
<g fill="None" fill-opacity="0.0" stroke="#1A8BA1" stroke-opacity="0.04" stroke-width="0.3"><path d="
M 319.00 125.00 
C 315.33 121.29 314.52 128.01 319.00 125.00 Z"/>
</g>
<g fill="None" fill-opacity="0.0" stroke="#1BD2DA" stroke-opacity="0.38" stroke-width="0.3"><path d="
M 393.00 124.00 
C 386.89 123.37 392.73 130.08 393.00 124.00 Z"/>
</g>
<g fill="None" fill-opacity="0.0" stroke="#10DAE0" stroke-opacity="0.40" stroke-width="0.3"><path d="
M 111.00 128.00 
C 107.61 130.75 114.14 131.80 111.00 128.00 Z"/>
</g>
<g fill="None" fill-opacity="0.0" stroke="#17A6A5" stroke-opacity="0.25" stroke-width="0.3"><path d="
M 309.00 128.00 
C 303.07 127.09 309.01 133.80 309.00 128.00 Z"/>
</g>
<g fill="#000000" fill-opacity="0.00" stroke="None">
<path d="
M 0.00 167.00 
L 411.00 167.00
L 411.00 0.00
L 0.00 0.00
L 0.00 167.00
M 70.00 47.00 
C 86.87 35.11 106.51 5.09 128.75 26.25 C 150.99 47.40 121.52 67.89 107.00 83.00
C 120.37 99.27 150.07 117.73 129.75 139.75 C 109.43 161.77 85.64 134.75 72.00 119.00
C 65.70 124.17 60.73 130.07 54.75 135.75 C 48.77 141.44 41.67 148.99 32.93 148.93 C 24.19 148.86 16.82 143.15 11.25 136.75 C 5.67 130.35 4.04 118.06 10.25 111.25 C 16.47 104.45 18.86 99.79 26.75 93.75 C 34.65 87.72 37.53 81.35 28.25 75.75 C 18.97 70.15 19.49 64.33 12.08 57.92 C 4.67 51.51 5.18 40.72 10.30 33.30 C 15.43 25.88 20.05 20.64 29.22 18.22 C 38.40 15.81 47.20 22.80 53.25 28.75 C 59.29 34.71 65.91 39.64 70.00 47.00
M 269.00 70.00 
C 266.46 70.00 264.74 72.60 262.00 72.00
C 257.36 59.40 241.92 65.83 242.01 78.01 C 242.10 90.18 256.98 96.38 262.00 84.00
C 278.07 88.50 255.29 102.97 244.93 96.07 C 234.56 89.18 231.09 73.72 239.75 63.75 C 248.41 53.79 266.26 57.64 269.00 70.00
M 178.00 69.00 
C 171.21 60.32 166.26 71.76 174.08 73.92 C 181.90 76.09 185.76 79.84 186.00 87.00 C 186.24 94.16 178.21 98.28 172.00 98.00 C 165.78 97.72 159.01 92.60 159.00 86.00
C 161.64 84.71 164.29 84.14 167.00 85.00
C 170.62 100.02 185.18 83.32 172.30 80.70 C 159.43 78.07 159.28 68.19 166.08 61.08 C 172.89 53.98 192.34 66.00 178.00 69.00
M 210.00 84.00 
C 211.24 78.83 216.71 73.58 216.77 67.77 C 216.83 61.96 225.19 54.41 228.92 61.08 C 232.64 67.76 226.03 77.63 229.00 84.00 C 231.97 90.37 226.57 102.74 222.08 95.92 C 217.60 89.09 226.10 80.08 221.00 74.00
C 217.38 79.09 218.56 93.56 210.97 94.97 C 203.38 96.38 202.79 79.69 200.00 75.00
C 195.40 78.25 204.45 99.72 194.99 97.99 C 185.53 96.26 194.67 81.20 191.00 73.00 C 187.33 64.80 196.74 52.90 201.97 63.03 C 207.21 73.15 205.60 74.58 210.00 84.00
M 290.00 77.00 
C 289.08 79.77 292.19 80.90 293.00 83.00
C 294.02 78.80 298.37 76.53 302.00 80.00
C 300.84 83.31 300.36 86.75 299.00 90.00
C 304.20 92.40 305.11 97.40 300.00 100.00
C 298.07 98.74 296.09 97.00 295.00 95.00
C 282.21 107.96 259.90 87.36 279.00 78.00
C 272.75 70.73 275.51 59.38 286.01 59.01 C 296.51 58.64 299.44 73.74 290.00 77.00
M 338.00 60.00 
C 340.67 62.67 339.18 75.19 339.00 79.00 C 338.82 82.81 340.78 95.34 339.00 97.00
C 337.47 98.59 333.51 98.51 332.00 97.00
C 329.79 95.84 333.62 84.85 332.00 82.00
C 327.00 82.00 322.00 82.00 317.00 82.00
C 316.72 87.65 319.61 102.16 310.00 97.00
C 307.11 94.11 309.03 85.55 309.00 81.00 C 308.97 76.45 307.89 67.64 309.00 63.00
C 311.79 50.43 321.95 68.58 317.00 75.00
C 322.00 75.00 327.00 75.00 332.00 75.00
C 332.00 69.67 332.00 64.33 332.00 59.00
C 333.88 59.47 336.93 57.94 338.00 60.00
M 179.00 121.00 
C 179.26 120.20 181.00 119.20 181.00 118.00
C 186.04 120.72 191.25 117.64 196.00 121.00
C 195.84 118.69 195.55 114.66 199.00 115.00
C 199.59 119.83 203.47 133.47 194.00 132.00
C 200.63 123.57 183.44 133.30 186.00 122.00
C 182.53 121.86 184.56 126.85 184.00 129.00
C 182.06 129.62 180.87 127.80 179.00 128.00
C 174.42 128.34 165.47 130.89 162.00 125.00
C 164.62 122.37 165.67 125.80 168.00 126.00
C 167.06 122.15 159.47 120.22 165.08 116.08 C 170.70 111.95 172.81 122.59 167.00 118.00
C 166.76 120.65 169.92 121.73 172.00 122.00
C 171.51 118.24 178.11 117.78 179.00 121.00
M 234.00 116.00 
C 235.34 115.33 234.26 115.95 236.00 116.00
C 238.25 116.06 239.51 114.24 240.00 118.00
C 240.13 118.98 239.85 120.02 240.00 121.00
C 244.45 118.50 252.10 118.14 256.00 121.00
C 257.97 119.63 255.74 114.76 260.00 116.00
C 260.19 120.11 260.69 124.18 262.00 128.00
C 255.59 128.17 245.94 131.20 241.00 126.00
C 240.15 129.72 237.30 127.82 235.00 128.00
C 229.87 128.41 222.91 129.98 219.00 126.00
C 218.16 128.60 213.87 130.26 214.00 126.00
C 210.29 130.83 208.00 121.84 207.00 129.00
C 202.06 126.97 203.05 116.28 208.00 115.00
C 209.05 117.01 209.98 118.98 211.00 121.00
C 211.90 114.48 220.32 113.45 218.00 122.00
C 222.29 116.07 230.48 123.55 234.00 116.00
M 291.00 126.00 
C 291.00 122.52 289.27 113.37 295.00 116.00
C 295.37 117.54 293.57 118.40 294.00 120.00
C 294.32 119.76 295.57 120.17 296.00 120.00
C 298.59 118.95 306.98 118.44 310.00 119.00
C 311.13 119.21 311.67 119.95 313.00 120.00
C 319.77 120.24 321.24 120.88 320.00 128.00
C 317.27 129.46 312.14 129.01 312.00 125.00
C 312.49 124.48 309.60 126.19 310.00 126.00
C 310.03 125.30 313.60 136.60 307.92 132.92 C 302.24 129.25 297.87 128.50 291.00 128.00
C 282.60 127.39 277.00 131.20 267.77 127.23 C 258.54 123.25 277.72 105.84 276.00 121.00
C 271.99 115.12 265.95 121.82 271.00 126.00
C 276.23 124.04 279.99 115.17 286.00 121.00
C 287.12 109.16 291.16 121.02 291.00 126.00
M 332.00 122.00 
C 336.35 120.83 334.12 126.02 336.00 128.00
C 329.94 129.17 324.16 130.13 325.31 122.31 C 326.45 114.48 334.09 112.98 332.00 122.00
M 350.00 116.00 
C 351.51 117.59 350.81 119.78 351.00 122.00
C 352.99 116.46 358.13 120.93 361.00 121.00
C 362.29 121.03 367.25 119.45 369.00 119.00
C 370.58 118.60 370.01 118.91 371.00 119.00
C 371.95 119.08 373.08 118.79 374.00 119.00
C 375.61 119.37 376.63 120.06 378.00 121.00
C 377.74 118.24 376.16 115.74 380.00 115.00
C 381.37 116.05 380.23 118.44 382.00 119.00
C 381.88 117.15 383.43 116.55 384.00 115.00
C 385.82 115.60 386.15 117.56 387.00 119.00
C 389.11 120.15 391.39 118.43 394.00 119.00
C 394.95 119.87 394.54 121.68 396.00 122.00
C 399.94 109.09 398.81 120.86 401.00 128.00
C 398.02 129.75 395.27 127.61 392.00 129.00
C 390.40 129.00 387.17 129.23 386.00 129.00
C 384.25 128.65 383.96 128.48 383.00 127.00
C 382.61 126.40 380.91 121.26 381.00 121.00
C 379.90 123.27 382.26 126.98 380.00 129.00
C 378.21 124.74 372.43 128.47 372.00 132.00
C 370.72 131.72 368.50 132.76 368.00 131.00
C 367.68 130.88 368.26 128.30 368.00 128.00
C 364.96 129.72 362.31 127.81 359.00 128.00
C 354.94 127.93 354.72 128.70 351.00 126.00
C 350.77 126.35 351.00 127.00 351.00 127.00
C 349.23 131.13 345.83 126.98 347.00 124.00
C 342.75 123.12 345.58 129.42 342.00 129.00
C 342.02 128.95 341.22 128.30 341.00 128.00
C 339.23 125.60 339.27 118.35 341.00 116.00
C 341.22 115.70 341.72 114.93 342.00 115.00
C 344.89 115.71 343.36 119.27 345.00 121.00
C 348.23 121.53 346.24 113.31 350.00 116.00 Z"/>
</g>
<g fill="#0CC2CA" fill-opacity="0.95" stroke="None">
<path d="
M 70.00 47.00 
C 65.91 39.64 59.29 34.71 53.25 28.75 C 47.20 22.80 38.40 15.81 29.22 18.22 C 20.05 20.64 15.43 25.88 10.30 33.30 C 5.18 40.72 4.67 51.51 12.08 57.92 C 19.49 64.33 18.97 70.15 28.25 75.75 C 37.53 81.35 34.65 87.72 26.75 93.75 C 18.86 99.79 16.47 104.45 10.25 111.25 C 4.04 118.06 5.67 130.35 11.25 136.75 C 16.82 143.15 24.19 148.86 32.93 148.93 C 41.67 148.99 48.77 141.44 54.75 135.75 C 60.73 130.07 65.70 124.17 72.00 119.00
C 85.64 134.75 109.43 161.77 129.75 139.75 C 150.07 117.73 120.37 99.27 107.00 83.00
C 121.52 67.89 150.99 47.40 128.75 26.25 C 106.51 5.09 86.87 35.11 70.00 47.00
M 39.00 36.00 
C 39.81 36.81 38.69 39.77 37.29 38.63 C 35.90 37.50 38.10 35.10 39.00 36.00
M 46.00 36.00 
C 50.82 36.11 46.88 41.04 46.00 36.00
M 109.00 39.00 
C 109.05 44.35 103.60 39.01 109.00 39.00
M 119.00 42.00 
C 113.65 42.05 118.99 36.60 119.00 42.00
M 39.00 46.00 
C 40.03 52.35 32.56 45.08 39.00 46.00
M 48.00 46.00 
C 48.81 46.81 47.69 49.77 46.29 48.63 C 44.90 47.50 47.10 45.10 48.00 46.00
M 20.00 51.00 
C 13.72 48.73 20.21 45.58 20.00 51.00
M 30.00 59.00 
C 24.41 58.75 29.69 53.38 30.00 59.00
M 107.00 58.00 
C 111.82 58.11 107.88 63.04 107.00 58.00
M 79.00 67.00 
C 82.94 70.37 86.67 74.11 90.00 78.00
C 97.54 86.83 89.40 90.13 84.25 98.25 C 79.10 106.36 70.87 108.71 65.25 100.75 C 59.63 92.79 52.60 92.15 48.00 84.00
C 55.58 75.67 67.25 52.10 79.00 67.00
M 39.00 68.00 
C 33.41 67.75 38.69 62.38 39.00 68.00
M 45.00 92.00 
C 46.05 97.89 39.11 92.01 45.00 92.00
M 92.00 103.00 
C 87.76 101.38 92.89 98.18 92.00 103.00
M 36.00 102.00 
C 37.05 107.89 30.11 102.01 36.00 102.00
M 101.00 108.00 
C 104.46 113.29 95.65 110.81 101.00 108.00
M 92.00 109.00 
C 92.81 109.81 91.69 112.77 90.29 111.63 C 88.90 110.50 91.10 108.10 92.00 109.00
M 83.00 113.00 
C 77.65 113.89 82.15 107.45 83.00 113.00
M 27.00 111.00 
C 27.92 117.98 20.67 111.56 27.00 111.00
M 36.00 115.00 
C 31.27 111.47 39.61 109.72 36.00 115.00
M 44.00 112.00 
C 49.35 111.95 44.01 117.40 44.00 112.00
M 56.00 112.00 
C 56.81 112.81 55.69 115.77 54.29 114.63 C 52.90 113.50 55.10 111.10 56.00 112.00
M 103.00 121.00 
C 96.92 121.77 102.69 114.86 103.00 121.00
M 112.00 122.00 
C 107.37 121.11 111.37 114.81 112.00 122.00
M 118.00 118.00 
C 123.35 117.95 118.01 123.40 118.00 118.00
M 91.00 119.00 
C 94.14 122.80 87.61 121.75 91.00 119.00
M 28.00 121.00 
C 27.41 125.27 21.98 121.51 28.00 121.00
M 37.00 121.00 
C 37.16 126.05 32.57 121.33 37.00 121.00
M 47.00 122.00 
C 45.85 129.42 40.39 118.46 47.00 122.00
M 56.00 121.00 
C 57.45 127.19 51.23 123.37 56.00 121.00
M 111.00 128.00 
C 114.14 131.80 107.61 130.75 111.00 128.00 Z"/>
</g>
<g fill="#18D3DE" fill-opacity="0.28" stroke="None">
<path d="
M 39.00 36.00 
C 38.10 35.10 35.90 37.50 37.29 38.63 C 38.69 39.77 39.81 36.81 39.00 36.00 Z"/>
</g>
<g fill="#1FD7E4" fill-opacity="0.36" stroke="None">
<path d="
M 46.00 36.00 
C 46.88 41.04 50.82 36.11 46.00 36.00 Z"/>
</g>
<g fill="#0FD1D9" fill-opacity="0.42" stroke="None">
<path d="
M 109.00 39.00 
C 103.60 39.01 109.05 44.35 109.00 39.00 Z"/>
</g>
<g fill="#0ECEDA" fill-opacity="0.42" stroke="None">
<path d="
M 119.00 42.00 
C 118.99 36.60 113.65 42.05 119.00 42.00 Z"/>
</g>
<g fill="#15CEDA" fill-opacity="0.49" stroke="None">
<path d="
M 39.00 46.00 
C 32.56 45.08 40.03 52.35 39.00 46.00 Z"/>
</g>
<g fill="#11CBD5" fill-opacity="0.24" stroke="None">
<path d="
M 48.00 46.00 
C 47.10 45.10 44.90 47.50 46.29 48.63 C 47.69 49.77 48.81 46.81 48.00 46.00 Z"/>
</g>
<g fill="#2ACEDA" fill-opacity="0.27" stroke="None">
<path d="
M 20.00 51.00 
C 20.21 45.58 13.72 48.73 20.00 51.00 Z"/>
</g>
<g fill="#1AD4E0" fill-opacity="0.31" stroke="None">
<path d="
M 30.00 59.00 
C 29.69 53.38 24.41 58.75 30.00 59.00 Z"/>
</g>
<g fill="#08959D" fill-opacity="0.25" stroke="None">
<path d="
M 107.00 58.00 
C 107.88 63.04 111.82 58.11 107.00 58.00 Z"/>
</g>
<g fill="#EE5E5F" fill-opacity="0.78" stroke="None">
<path d="
M 269.00 70.00 
C 266.26 57.64 248.41 53.79 239.75 63.75 C 231.09 73.72 234.56 89.18 244.93 96.07 C 255.29 102.97 278.07 88.50 262.00 84.00
C 256.98 96.38 242.10 90.18 242.01 78.01 C 241.92 65.83 257.36 59.40 262.00 72.00
C 264.74 72.60 266.46 70.00 269.00 70.00 Z"/>
</g>
<g fill="#EE5E60" fill-opacity="0.76" stroke="None">
<path d="
M 178.00 69.00 
C 192.34 66.00 172.89 53.98 166.08 61.08 C 159.28 68.19 159.43 78.07 172.30 80.70 C 185.18 83.32 170.62 100.02 167.00 85.00
C 164.29 84.14 161.64 84.71 159.00 86.00
C 159.01 92.60 165.78 97.72 172.00 98.00 C 178.21 98.28 186.24 94.16 186.00 87.00 C 185.76 79.84 181.90 76.09 174.08 73.92 C 166.26 71.76 171.21 60.32 178.00 69.00 Z"/>
</g>
<g fill="#EF5F5F" fill-opacity="0.76" stroke="None">
<path d="
M 210.00 84.00 
C 205.60 74.58 207.21 73.15 201.97 63.03 C 196.74 52.90 187.33 64.80 191.00 73.00 C 194.67 81.20 185.53 96.26 194.99 97.99 C 204.45 99.72 195.40 78.25 200.00 75.00
C 202.79 79.69 203.38 96.38 210.97 94.97 C 218.56 93.56 217.38 79.09 221.00 74.00
C 226.10 80.08 217.60 89.09 222.08 95.92 C 226.57 102.74 231.97 90.37 229.00 84.00 C 226.03 77.63 232.64 67.76 228.92 61.08 C 225.19 54.41 216.83 61.96 216.77 67.77 C 216.71 73.58 211.24 78.83 210.00 84.00 Z"/>
</g>
<g fill="#F05D5F" fill-opacity="0.77" stroke="None">
<path d="
M 290.00 77.00 
C 299.44 73.74 296.51 58.64 286.01 59.01 C 275.51 59.38 272.75 70.73 279.00 78.00
C 259.90 87.36 282.21 107.96 295.00 95.00
C 296.09 97.00 298.07 98.74 300.00 100.00
C 305.11 97.40 304.20 92.40 299.00 90.00
C 300.36 86.75 300.84 83.31 302.00 80.00
C 298.37 76.53 294.02 78.80 293.00 83.00
C 292.19 80.90 289.08 79.77 290.00 77.00
M 287.00 73.00 
C 284.41 75.71 284.66 74.22 284.00 73.00
C 282.43 70.13 280.76 66.60 285.08 65.08 C 289.40 63.57 290.54 71.66 287.00 73.00
M 285.00 82.00 
C 288.81 86.67 291.98 92.21 283.00 92.00 C 274.01 91.78 280.13 82.83 285.00 82.00 Z"/>
</g>
<g fill="#F25C5C" fill-opacity="0.82" stroke="None">
<path d="
M 309.00 63.00 
C 309.15 62.39 310.27 60.42 311.00 60.00
C 310.33 72.17 312.33 85.66 310.00 97.00
C 319.61 102.16 316.72 87.65 317.00 82.00
C 322.00 82.00 327.00 82.00 332.00 82.00
C 333.62 84.85 329.79 95.84 332.00 97.00
C 333.22 97.64 336.59 97.00 338.00 97.00
C 337.52 91.67 339.31 84.04 338.00 79.00 C 336.69 73.96 340.82 64.09 338.00 60.00
C 336.93 57.94 333.88 59.47 332.00 59.00
C 332.00 64.33 332.00 69.67 332.00 75.00
C 327.00 75.00 322.00 75.00 317.00 75.00
C 321.95 68.58 311.79 50.43 309.00 63.00 Z"/>
</g>
<g fill="#DF6763" fill-opacity="0.45" stroke="None">
<path d="
M 309.00 63.00 
C 307.89 67.64 308.97 76.45 309.00 81.00 C 309.03 85.55 307.11 94.11 310.00 97.00
C 312.33 85.66 310.33 72.17 311.00 60.00
C 310.27 60.42 309.15 62.39 309.00 63.00 Z"/>
</g>
<g fill="#D2706D" fill-opacity="0.55" stroke="None">
<path d="
M 338.00 97.00 
C 338.50 97.00 339.00 97.00 339.00 97.00
C 340.78 95.34 338.82 82.81 339.00 79.00 C 339.18 75.19 340.67 62.67 338.00 60.00
C 340.82 64.09 336.69 73.96 338.00 79.00 C 339.31 84.04 337.52 91.67 338.00 97.00 Z"/>
</g>
<g fill="#000000" fill-opacity="0.00" stroke="None">
<path d="
M 90.00 78.00 
C 86.41 74.41 82.54 70.54 79.00 67.00
C 67.25 52.10 55.58 75.67 48.00 84.00
C 52.60 92.15 59.63 92.79 65.25 100.75 C 70.87 108.71 79.10 106.36 84.25 98.25 C 89.40 90.13 97.54 86.83 90.00 78.00
M 72.00 77.00 
C 90.01 68.68 79.38 97.13 68.00 98.00
C 63.85 91.26 62.33 88.16 61.00 80.00 C 59.67 71.84 68.96 67.24 72.00 77.00 Z"/>
</g>
<g fill="#1BD6E0" fill-opacity="0.32" stroke="None">
<path d="
M 39.00 68.00 
C 38.69 62.38 33.41 67.75 39.00 68.00 Z"/>
</g>
<g fill="#000000" fill-opacity="0.00" stroke="None">
<path d="
M 284.00 73.00 
C 284.32 73.18 286.65 73.13 287.00 73.00
C 290.54 71.66 289.40 63.57 285.08 65.08 C 280.76 66.60 282.43 70.13 284.00 73.00 Z"/>
</g>
<g fill="#00FFFF" fill-opacity="0.00" stroke="None">
<path d="
M 90.00 78.00 
C 86.67 74.11 82.94 70.37 79.00 67.00
C 82.54 70.54 86.41 74.41 90.00 78.00 Z"/>
</g>
<g fill="#F1605F" fill-opacity="0.89" stroke="None">
<path d="
M 72.00 77.00 
C 68.96 67.24 59.67 71.84 61.00 80.00 C 62.33 88.16 63.85 91.26 68.00 98.00
C 79.38 97.13 90.01 68.68 72.00 77.00 Z"/>
</g>
<g fill="#E25E61" fill-opacity="0.47" stroke="None">
<path d="
M 287.00 73.00 
C 286.65 73.13 284.32 73.18 284.00 73.00
C 284.66 74.22 284.41 75.71 287.00 73.00 Z"/>
</g>
<g fill="#000000" fill-opacity="0.00" stroke="None">
<path d="
M 285.00 82.00 
C 280.13 82.83 274.01 91.78 283.00 92.00 C 291.98 92.21 288.81 86.67 285.00 82.00 Z"/>
</g>
<g fill="#11D2DC" fill-opacity="0.18" stroke="None">
<path d="
M 45.00 92.00 
C 39.11 92.01 46.05 97.89 45.00 92.00 Z"/>
</g>
<g fill="#D07171" fill-opacity="0.03" stroke="None">
<path d="
M 339.00 97.00 
C 339.00 97.00 338.50 97.00 338.00 97.00
C 336.59 97.00 333.22 97.64 332.00 97.00
C 333.51 98.51 337.47 98.59 339.00 97.00 Z"/>
</g>
<g fill="#18D6DC" fill-opacity="0.38" stroke="None">
<path d="
M 92.00 103.00 
C 92.89 98.18 87.76 101.38 92.00 103.00 Z"/>
</g>
<g fill="#0EA9AE" fill-opacity="0.26" stroke="None">
<path d="
M 36.00 102.00 
C 30.11 102.01 37.05 107.89 36.00 102.00 Z"/>
</g>
<g fill="#17ACB2" fill-opacity="0.26" stroke="None">
<path d="
M 101.00 108.00 
C 95.65 110.81 104.46 113.29 101.00 108.00 Z"/>
</g>
<g fill="#1DD7E3" fill-opacity="0.20" stroke="None">
<path d="
M 92.00 109.00 
C 91.10 108.10 88.90 110.50 90.29 111.63 C 91.69 112.77 92.81 109.81 92.00 109.00 Z"/>
</g>
<g fill="#18D7DF" fill-opacity="0.23" stroke="None">
<path d="
M 83.00 113.00 
C 82.15 107.45 77.65 113.89 83.00 113.00 Z"/>
</g>
<g fill="#14B0BB" fill-opacity="0.31" stroke="None">
<path d="
M 27.00 111.00 
C 20.67 111.56 27.92 117.98 27.00 111.00 Z"/>
</g>
<g fill="#1CD8E4" fill-opacity="0.40" stroke="None">
<path d="
M 36.00 115.00 
C 39.61 109.72 31.27 111.47 36.00 115.00 Z"/>
</g>
<g fill="#1BD4E1" fill-opacity="0.30" stroke="None">
<path d="
M 44.00 112.00 
C 44.01 117.40 49.35 111.95 44.00 112.00 Z"/>
</g>
<g fill="#19D4DD" fill-opacity="0.15" stroke="None">
<path d="
M 56.00 112.00 
C 55.10 111.10 52.90 113.50 54.29 114.63 C 55.69 115.77 56.81 112.81 56.00 112.00 Z"/>
</g>
<g fill="#33BAC0" fill-opacity="0.63" stroke="None">
<path d="
M 179.00 128.00 
C 179.84 126.02 178.33 123.06 179.00 121.00
C 178.11 117.78 171.51 118.24 172.00 122.00
C 169.92 121.73 166.76 120.65 167.00 118.00
C 172.81 122.59 170.70 111.95 165.08 116.08 C 159.47 120.22 167.06 122.15 168.00 126.00
C 165.67 125.80 164.62 122.37 162.00 125.00
C 165.47 130.89 174.42 128.34 179.00 128.00
M 178.00 122.00 
C 175.18 125.21 174.26 119.11 178.00 122.00
M 177.00 124.00 
C 176.82 128.35 171.88 123.90 177.00 124.00 Z"/>
</g>
<g fill="#2EBBC2" fill-opacity="0.53" stroke="None">
<path d="
M 179.00 121.00 
C 178.33 123.06 179.84 126.02 179.00 128.00
C 180.87 127.80 182.06 129.62 184.00 129.00
C 184.56 126.85 182.53 121.86 186.00 122.00
C 183.44 133.30 200.63 123.57 194.00 132.00
C 203.47 133.47 199.59 119.83 199.00 115.00
C 195.55 114.66 195.84 118.69 196.00 121.00
C 191.25 117.64 186.04 120.72 181.00 118.00
C 181.00 119.20 179.26 120.20 179.00 121.00
M 192.00 123.00 
C 192.16 128.05 187.57 123.33 192.00 123.00 Z"/>
</g>
<g fill="#27BAC1" fill-opacity="0.65" stroke="None">
<path d="
M 235.00 128.00 
C 234.65 127.49 234.05 115.86 234.00 116.00
C 230.48 123.55 222.29 116.07 218.00 122.00
C 220.32 113.45 211.90 114.48 211.00 121.00
C 209.98 118.98 209.05 117.01 208.00 115.00
C 203.05 116.28 202.06 126.97 207.00 129.00
C 208.00 121.84 210.29 130.83 214.00 126.00
C 213.87 130.26 218.16 128.60 219.00 126.00
C 222.91 129.98 229.87 128.41 235.00 128.00
M 224.00 121.00 
C 223.82 125.35 218.88 120.90 224.00 121.00
M 232.00 124.00 
C 232.51 127.45 229.12 124.37 230.00 123.00
C 229.45 121.63 235.86 119.87 232.00 124.00
M 227.00 124.00 
C 223.78 128.76 220.36 123.42 227.00 124.00 Z"/>
</g>
<g fill="#19BEC5" fill-opacity="0.22" stroke="None">
<path d="
M 234.00 116.00 
C 234.05 115.86 234.65 127.49 235.00 128.00
C 237.30 127.82 240.15 129.72 241.00 126.00
C 240.60 125.07 240.16 122.09 240.00 121.00
C 239.85 120.02 240.13 118.98 240.00 118.00
C 239.21 117.02 237.41 118.52 237.00 119.00
C 237.41 118.81 238.00 119.00 238.00 119.00
C 239.77 120.71 239.54 126.30 238.00 128.00
C 237.05 125.96 236.25 122.55 236.00 120.00
C 235.90 118.95 236.45 116.94 236.00 116.00
C 234.26 115.95 235.34 115.33 234.00 116.00 Z"/>
</g>
<g fill="#388283" fill-opacity="0.35" stroke="None">
<path d="
M 236.00 116.00 
C 236.45 116.94 235.90 118.95 236.00 120.00
C 236.00 119.84 236.74 119.12 237.00 119.00
C 237.41 118.52 239.21 117.02 240.00 118.00
C 239.51 114.24 238.25 116.06 236.00 116.00 Z"/>
</g>
<g fill="#32B9C1" fill-opacity="0.58" stroke="None">
<path d="
M 291.00 128.00 
C 290.76 127.69 291.00 126.50 291.00 126.00
C 291.16 121.02 287.12 109.16 286.00 121.00
C 279.99 115.17 276.23 124.04 271.00 126.00
C 265.95 121.82 271.99 115.12 276.00 121.00
C 277.72 105.84 258.54 123.25 267.77 127.23 C 277.00 131.20 282.60 127.39 291.00 128.00
M 282.00 122.00 
C 285.46 127.29 276.65 124.81 282.00 122.00 Z"/>
</g>
<g fill="#2CBBC3" fill-opacity="0.67" stroke="None">
<path d="
M 291.00 126.00 
C 291.00 126.50 290.76 127.69 291.00 128.00
C 297.87 128.50 302.24 129.25 307.92 132.92 C 313.60 136.60 310.03 125.30 310.00 126.00
C 308.56 126.70 306.88 126.78 306.00 125.00
C 309.33 125.80 312.53 121.70 310.00 119.00
C 306.98 118.44 298.59 118.95 296.00 120.00
C 296.23 120.34 296.00 121.00 296.00 121.00
C 297.17 121.42 299.35 120.73 301.00 122.00
C 298.06 123.33 295.89 124.02 301.00 124.00
C 300.10 127.16 296.88 127.10 296.00 124.00
C 294.82 125.92 293.96 127.99 294.00 124.00
C 293.90 122.72 293.90 121.28 294.00 120.00
C 293.57 118.40 295.37 117.54 295.00 116.00
C 289.27 113.37 291.00 122.52 291.00 126.00
M 306.00 124.00 
C 304.95 118.11 311.89 123.99 306.00 124.00
M 309.00 128.00 
C 309.01 133.80 303.07 127.09 309.00 128.00 Z"/>
</g>
<g fill="#30BBC1" fill-opacity="0.65" stroke="None">
<path d="
M 332.00 122.00 
C 334.09 112.98 326.45 114.48 325.31 122.31 C 324.16 130.13 329.94 129.17 336.00 128.00
C 334.12 126.02 336.35 120.83 332.00 122.00
M 331.00 126.00 
C 324.49 127.51 328.89 120.17 331.00 126.00 Z"/>
</g>
<g fill="#1AC8CB" fill-opacity="0.78" stroke="None">
<path d="
M 341.00 116.00 
C 340.50 119.49 340.50 124.51 341.00 128.00
C 341.22 128.30 342.02 128.95 342.00 129.00
C 342.87 126.29 342.87 117.71 342.00 115.00
C 341.72 114.93 341.22 115.70 341.00 116.00 Z"/>
</g>
<g fill="#2FBAC3" fill-opacity="0.62" stroke="None">
<path d="
M 342.00 129.00 
C 345.58 129.42 342.75 123.12 347.00 124.00
C 345.83 126.98 349.23 131.13 351.00 127.00
C 348.22 124.33 351.71 119.06 350.00 116.00
C 346.24 113.31 348.23 121.53 345.00 121.00
C 343.36 119.27 344.89 115.71 342.00 115.00
C 342.87 117.71 342.87 126.29 342.00 129.00 Z"/>
</g>
<g fill="#35BEC5" fill-opacity="0.62" stroke="None">
<path d="
M 374.00 119.00 
C 373.95 119.01 373.99 120.50 374.00 121.00
C 374.01 122.33 373.99 123.67 374.00 125.00
C 371.56 125.57 372.17 123.16 373.00 122.00
C 370.47 122.64 372.24 120.15 371.00 119.00
C 370.01 118.91 370.58 118.60 369.00 119.00
C 367.15 122.11 371.18 128.52 368.00 131.00
C 368.50 132.76 370.72 131.72 372.00 132.00
C 372.43 128.47 378.21 124.74 380.00 129.00
C 382.26 126.98 379.90 123.27 381.00 121.00
C 381.32 120.34 382.53 120.20 383.00 121.00
C 382.86 120.43 382.27 119.52 382.00 119.00
C 380.23 118.44 381.37 116.05 380.00 115.00
C 376.16 115.74 377.74 118.24 378.00 121.00
C 376.63 120.06 375.61 119.37 374.00 119.00 Z"/>
</g>
<g fill="#30BBC5" fill-opacity="0.74" stroke="None">
<path d="
M 382.00 119.00 
C 382.27 119.52 382.86 120.43 383.00 121.00
C 383.46 122.82 382.34 125.25 383.00 127.00
C 383.96 128.48 384.25 128.65 386.00 129.00
C 383.88 129.32 387.03 119.68 387.00 119.00
C 386.15 117.56 385.82 115.60 384.00 115.00
C 383.43 116.55 381.88 117.15 382.00 119.00 Z"/>
</g>
<g fill="#36BCC2" fill-opacity="0.50" stroke="None">
<path d="
M 396.00 122.00 
C 395.99 122.02 393.29 128.31 392.00 129.00
C 395.27 127.61 398.02 129.75 401.00 128.00
C 398.81 120.86 399.94 109.09 396.00 122.00 Z"/>
</g>
<g fill="#33B8BF" fill-opacity="0.59" stroke="None">
<path d="
M 240.00 121.00 
C 240.16 122.09 240.60 125.07 241.00 126.00
C 245.94 131.20 255.59 128.17 262.00 128.00
C 260.69 124.18 260.19 120.11 260.00 116.00
C 255.74 114.76 257.97 119.63 256.00 121.00
C 252.10 118.14 244.45 118.50 240.00 121.00
M 254.00 121.00 
C 252.94 125.53 247.83 121.01 254.00 121.00
M 249.00 122.00 
C 249.41 125.16 245.78 124.77 244.00 126.00
C 242.85 122.19 247.13 123.54 249.00 122.00 Z"/>
</g>
<g fill="#33ACB0" fill-opacity="0.11" stroke="None">
<path d="
M 341.00 128.00 
C 340.50 124.51 340.50 119.49 341.00 116.00
C 339.27 118.35 339.23 125.60 341.00 128.00 Z"/>
</g>
<g fill="#3ABAC6" fill-opacity="0.31" stroke="None">
<path d="
M 351.00 127.00 
C 351.00 127.00 350.77 126.35 351.00 126.00
C 352.34 123.98 351.17 123.93 351.00 122.00
C 350.81 119.78 351.51 117.59 350.00 116.00
C 351.71 119.06 348.22 124.33 351.00 127.00 Z"/>
</g>
<g fill="#19D7DF" fill-opacity="0.33" stroke="None">
<path d="
M 103.00 121.00 
C 102.69 114.86 96.92 121.77 103.00 121.00 Z"/>
</g>
<g fill="#0FCBD4" fill-opacity="0.54" stroke="None">
<path d="
M 112.00 122.00 
C 111.37 114.81 107.37 121.11 112.00 122.00 Z"/>
</g>
<g fill="#1CDAE1" fill-opacity="0.24" stroke="None">
<path d="
M 118.00 118.00 
C 118.01 123.40 123.35 117.95 118.00 118.00 Z"/>
</g>
<g fill="#17D5E2" fill-opacity="0.18" stroke="None">
<path d="
M 91.00 119.00 
C 87.61 121.75 94.14 122.80 91.00 119.00 Z"/>
</g>
<g fill="#21BACB" fill-opacity="0.67" stroke="None">
<path d="
M 236.00 120.00 
C 236.25 122.55 237.05 125.96 238.00 128.00
C 237.80 125.02 238.27 121.98 238.00 119.00
C 238.00 119.00 237.41 118.81 237.00 119.00
C 236.74 119.12 236.00 119.84 236.00 120.00 Z"/>
</g>
<g fill="#18BEC8" fill-opacity="0.99" stroke="None">
<path d="
M 238.00 128.00 
C 239.54 126.30 239.77 120.71 238.00 119.00
C 238.27 121.98 237.80 125.02 238.00 128.00 Z"/>
</g>
<g fill="#2CBFC6" fill-opacity="0.23" stroke="None">
<path d="
M 310.00 126.00 
C 309.60 126.19 312.49 124.48 312.00 125.00
C 312.02 124.98 313.10 120.15 313.00 120.00
C 311.67 119.95 311.13 119.21 310.00 119.00
C 312.53 121.70 309.33 125.80 306.00 125.00
C 306.88 126.78 308.56 126.70 310.00 126.00 Z"/>
</g>
<g fill="#2CBABE" fill-opacity="0.67" stroke="None">
<path d="
M 313.00 120.00 
C 313.10 120.15 312.02 124.98 312.00 125.00
C 312.14 129.01 317.27 129.46 320.00 128.00
C 321.24 120.88 319.77 120.24 313.00 120.00
M 318.00 122.00 
C 314.28 125.57 313.58 119.15 318.00 122.00
M 319.00 125.00 
C 314.52 128.01 315.33 121.29 319.00 125.00 Z"/>
</g>
<g fill="#32BABF" fill-opacity="0.68" stroke="None">
<path d="
M 351.00 122.00 
C 351.17 123.93 352.34 123.98 351.00 126.00
C 354.72 128.70 354.94 127.93 359.00 128.00
C 360.26 126.82 360.74 121.27 361.00 121.00
C 358.13 120.93 352.99 116.46 351.00 122.00
M 358.00 123.00 
C 358.22 125.19 354.76 126.64 355.00 125.00
C 351.84 122.04 357.66 119.55 358.00 123.00 Z"/>
</g>
<g fill="#2CB6BE" fill-opacity="0.46" stroke="None">
<path d="
M 361.00 121.00 
C 360.74 121.27 360.26 126.82 359.00 128.00
C 362.31 127.81 364.96 129.72 368.00 128.00
C 368.26 128.30 367.68 130.88 368.00 131.00
C 371.18 128.52 367.15 122.11 369.00 119.00
C 367.25 119.45 362.29 121.03 361.00 121.00 Z"/>
</g>
<g fill="#49B2CA" fill-opacity="0.36" stroke="None">
<path d="
M 373.00 122.00 
C 373.15 121.66 373.89 121.26 374.00 121.00
C 373.99 120.50 373.95 119.01 374.00 119.00
C 373.08 118.79 371.95 119.08 371.00 119.00
C 372.24 120.15 370.47 122.64 373.00 122.00 Z"/>
</g>
<g fill="#2EBBC2" fill-opacity="0.60" stroke="None">
<path d="
M 386.00 129.00 
C 387.17 129.23 390.40 129.00 392.00 129.00
C 393.29 128.31 395.99 122.02 396.00 122.00
C 394.54 121.68 394.95 119.87 394.00 119.00
C 391.39 118.43 389.11 120.15 387.00 119.00
C 387.03 119.68 383.88 129.32 386.00 129.00
M 393.00 122.00 
C 389.28 125.57 388.58 119.15 393.00 122.00
M 388.00 122.00 
C 387.34 127.97 383.86 123.27 388.00 122.00
M 393.00 124.00 
C 392.73 130.08 386.89 123.37 393.00 124.00 Z"/>
</g>
<g fill="#04819A" fill-opacity="0.02" stroke="None">
<path d="
M 294.00 124.00 
C 294.17 123.16 295.89 121.92 296.00 121.00
C 296.00 121.00 296.23 120.34 296.00 120.00
C 295.57 120.17 294.32 119.76 294.00 120.00
C 293.90 121.28 293.90 122.72 294.00 124.00 Z"/>
</g>
<g fill="#2EBECA" fill-opacity="0.17" stroke="None">
<path d="
M 381.00 121.00 
C 380.91 121.26 382.61 126.40 383.00 127.00
C 382.34 125.25 383.46 122.82 383.00 121.00
C 382.53 120.20 381.32 120.34 381.00 121.00 Z"/>
</g>
<g fill="#25C9DA" fill-opacity="0.38" stroke="None">
<path d="
M 28.00 121.00 
C 21.98 121.51 27.41 125.27 28.00 121.00 Z"/>
</g>
<g fill="#13D4DF" fill-opacity="0.24" stroke="None">
<path d="
M 37.00 121.00 
C 32.57 121.33 37.16 126.05 37.00 121.00 Z"/>
</g>
<g fill="#16CFDC" fill-opacity="0.49" stroke="None">
<path d="
M 47.00 122.00 
C 40.39 118.46 45.85 129.42 47.00 122.00 Z"/>
</g>
<g fill="#11CFDB" fill-opacity="0.24" stroke="None">
<path d="
M 56.00 121.00 
C 51.23 123.37 57.45 127.19 56.00 121.00 Z"/>
</g>
<g fill="#18D8D9" fill-opacity="0.30" stroke="None">
<path d="
M 178.00 122.00 
C 174.26 119.11 175.18 125.21 178.00 122.00 Z"/>
</g>
<g fill="#25D9EA" fill-opacity="0.20" stroke="None">
<path d="
M 224.00 121.00 
C 218.88 120.90 223.82 125.35 224.00 121.00 Z"/>
</g>
<g fill="#23CDC9" fill-opacity="0.37" stroke="None">
<path d="
M 230.00 123.00 
C 231.15 121.20 231.83 122.87 232.00 124.00
C 235.86 119.87 229.45 121.63 230.00 123.00 Z"/>
</g>
<g fill="#26D6E5" fill-opacity="0.18" stroke="None">
<path d="
M 254.00 121.00 
C 247.83 121.01 252.94 125.53 254.00 121.00 Z"/>
</g>
<g fill="#1FCDDB" fill-opacity="0.33" stroke="None">
<path d="
M 294.00 124.00 
C 293.96 127.99 294.82 125.92 296.00 124.00
C 296.88 127.10 300.10 127.16 301.00 124.00
C 295.89 124.02 298.06 123.33 301.00 122.00
C 299.35 120.73 297.17 121.42 296.00 121.00
C 295.89 121.92 294.17 123.16 294.00 124.00 Z"/>
</g>
<g fill="#25DCEA" fill-opacity="0.29" stroke="None">
<path d="
M 306.00 124.00 
C 311.89 123.99 304.95 118.11 306.00 124.00 Z"/>
</g>
<g fill="#25DFE8" fill-opacity="0.27" stroke="None">
<path d="
M 318.00 122.00 
C 313.58 119.15 314.28 125.57 318.00 122.00 Z"/>
</g>
<g fill="#4ACDD2" fill-opacity="0.20" stroke="None">
<path d="
M 355.00 125.00 
C 355.27 123.10 355.95 122.83 358.00 123.00
C 357.66 119.55 351.84 122.04 355.00 125.00 Z"/>
</g>
<g fill="#000000" fill-opacity="0.00" stroke="None">
<path d="
M 373.00 122.00 
C 372.17 123.16 371.56 125.57 374.00 125.00
C 373.99 123.67 374.01 122.33 374.00 121.00
C 373.89 121.26 373.15 121.66 373.00 122.00 Z"/>
</g>
<g fill="#2BE3E8" fill-opacity="0.19" stroke="None">
<path d="
M 393.00 122.00 
C 388.58 119.15 389.28 125.57 393.00 122.00 Z"/>
</g>
<g fill="#000000" fill-opacity="0.00" stroke="None">
<path d="
M 230.00 123.00 
C 229.12 124.37 232.51 127.45 232.00 124.00
C 231.83 122.87 231.15 121.20 230.00 123.00 Z"/>
</g>
<g fill="#000000" fill-opacity="0.00" stroke="None">
<path d="
M 249.00 122.00 
C 247.13 123.54 242.85 122.19 244.00 126.00
C 245.78 124.77 249.41 125.16 249.00 122.00 Z"/>
</g>
<g fill="#000000" fill-opacity="0.00" stroke="None">
<path d="
M 282.00 122.00 
C 276.65 124.81 285.46 127.29 282.00 122.00 Z"/>
</g>
<g fill="#000505" fill-opacity="0.00" stroke="None">
<path d="
M 388.00 122.00 
C 383.86 123.27 387.34 127.97 388.00 122.00 Z"/>
</g>
<g fill="#000000" fill-opacity="0.00" stroke="None">
<path d="
M 192.00 123.00 
C 187.57 123.33 192.16 128.05 192.00 123.00 Z"/>
</g>
<g fill="#30B0BB" fill-opacity="0.16" stroke="None">
<path d="
M 331.00 126.00 
C 328.89 120.17 324.49 127.51 331.00 126.00 Z"/>
</g>
<g fill="#000000" fill-opacity="0.00" stroke="None">
<path d="
M 355.00 125.00 
C 354.76 126.64 358.22 125.19 358.00 123.00
C 355.95 122.83 355.27 123.10 355.00 125.00 Z"/>
</g>
<g fill="#13C7CF" fill-opacity="0.13" stroke="None">
<path d="
M 177.00 124.00 
C 171.88 123.90 176.82 128.35 177.00 124.00 Z"/>
</g>
<g fill="#0D737F" fill-opacity="0.05" stroke="None">
<path d="
M 227.00 124.00 
C 220.36 123.42 223.78 128.76 227.00 124.00 Z"/>
</g>
<g fill="#1A8BA1" fill-opacity="0.04" stroke="None">
<path d="
M 319.00 125.00 
C 315.33 121.29 314.52 128.01 319.00 125.00 Z"/>
</g>
<g fill="#1BD2DA" fill-opacity="0.38" stroke="None">
<path d="
M 393.00 124.00 
C 386.89 123.37 392.73 130.08 393.00 124.00 Z"/>
</g>
<g fill="#10DAE0" fill-opacity="0.40" stroke="None">
<path d="
M 111.00 128.00 
C 107.61 130.75 114.14 131.80 111.00 128.00 Z"/>
</g>
<g fill="#17A6A5" fill-opacity="0.25" stroke="None">
<path d="
M 309.00 128.00 
C 303.07 127.09 309.01 133.80 309.00 128.00 Z"/>
</g>
</svg>